<mxfile host="app.diagrams.net" modified="2023-06-28T09:25:35.626Z" agent="Mozilla/5.0 (Macintosh; Intel Mac OS X 10_15_7) AppleWebKit/537.36 (KHTML, like Gecko) Chrome/114.0.0.0 Safari/537.36 Edg/114.0.1823.58" etag="uXTyZrBKMj4XlF6IXd32" version="21.3.8" type="device">
  <diagram name="Page-1" id="9tgxndZ4uTJXFXGRZsCn">
    <mxGraphModel dx="7130" dy="5236" grid="1" gridSize="10" guides="1" tooltips="1" connect="1" arrows="1" fold="1" page="1" pageScale="1" pageWidth="850" pageHeight="1100" math="0" shadow="0">
      <root>
        <mxCell id="0" />
        <mxCell id="1" parent="0" />
        <mxCell id="yUXZ9sbIAIahtc0H1QDe-2" value="" style="shape=image;verticalLabelPosition=bottom;labelBackgroundColor=default;verticalAlign=top;aspect=fixed;imageAspect=0;image=https://www.pngkit.com/png/full/357-3573451_many-programmers-know-at-least-2-or-3.png;" vertex="1" parent="1">
          <mxGeometry x="-300" y="170" width="780" height="450" as="geometry" />
        </mxCell>
        <mxCell id="yUXZ9sbIAIahtc0H1QDe-4" value="" style="shape=image;verticalLabelPosition=bottom;labelBackgroundColor=default;verticalAlign=top;aspect=fixed;imageAspect=0;image=https://logos-world.net/wp-content/uploads/2020/11/GitHub-Logo.png;" vertex="1" parent="1">
          <mxGeometry x="610" y="170" width="782.22" height="440" as="geometry" />
        </mxCell>
        <mxCell id="yUXZ9sbIAIahtc0H1QDe-7" value="" style="shape=image;verticalLabelPosition=bottom;labelBackgroundColor=default;verticalAlign=top;aspect=fixed;imageAspect=0;image=data:image/png,iVBORw0KGgoAAAANSUhEUgAAARgAAAEYCAYAAACHjumMAAAAAXNSR0IArs4c6QAAAERlWElmTU0AKgAAAAgAAYdpAAQAAAABAAAAGgAAAAAAA6ABAAMAAAABAAEAAKACAAQAAAABAAABGKADAAQAAAABAAABGAAAAADGOxDpAABAAElEQVR4Ae19DXAc1ZVu91igMQHcBrLICRtGthfkR14s6rGFHRyrx5axXC8pRIX3bALE8oYfu7JbyG9JbOcFz4wh2GRJYeqRQg5kkTcmmFq2EFVJWQbZ0wJnLWrJs9h11g7P2E3CrkXx48GQeBykmfedVo88Gs1P3+7bPd0z91bNdPftc88995zu0+eee++5slQDKfJoVpHS0gI0ZYEkS1fj2IRfxPzhMCWlkTNk5MrSUSkjvSuFpH59gzyeNwVcZAgOCA7Y4YBsp1C1ylx6Y7xldCwz/4I50dbG2WpLVpbmyllpLugJ86IpK0nvgCnHgE8/e1w7duZ48rDUEHoj1R/XedUh8AgO1AsHfK9gSKlctCS2AQJR8YvgV600DOtoO6ycndUiQNQrOBA0DvhPwVyjXqjMWry0cXZUnT5bVWFRfBFENviIsSnQcvTMW9rApycGf/nhqPa6pGmjPqJPkCI44BsO+ErBRLZmu2AlbAV3yIcSlDQsZaX1+iZZCwrBgk7BAa84UF0Fo6oNSoO6SGmPrUaDV+HHzZfiFQPz6hlK7YvtlqTQYOrl+HBevjgVHKhbDlRNwRgjP3+SnsXXv6MGud+rb5TX1GC7RJMEB5g4EGKC5gR8SXt8gXRWOlGjyoW41BXZlk0qHfEIJ5YJNIIDgeSAdxYMukMzpi3++sxlCbJYgt4dsiRsOKjfB4Ofevep6I/PHNPesVRIAAkO1BAHPFMw+KI/C76RYqnHNIKJfCv078rCN1OP0q/jNrveRZp11/6vQ7mcAI/rVbnQ49WE2cKHqNs0c9n9N9Tx8yaaXmcccNWCwQv1KPjZXSWeplHvUIm6W5DfVOKe29lpDMXfigl7fW5XJPALDlSbA64oGHJuKtHYEy47cVPwcRyWZelw6uXYSDYrHZXl0LuYkqdbndavqHFl2vlS01hGaspmM3PgH6JlB6R8WvGL4OdaSh/XHg+/OfgdXYuTIhRJcKAmOcBdwZiT5Z52kVs0ZT/hhQUAC+xetIMssIhL7dH/0J9Y+J4WH3EJv0ArOFBVDnBVMBe3b15+SXui36UW0YzZTZgx6xb+kmRHHs6uRt1xAERKAtm9IUs9UJbr7BYX5QQH/MwBPgrm3BD0djSWl2+Dug79Z05ovzj728F/SmnxVLUZqSy7v01ZuqUTdCxA9+w6MI/XGqm+1L5EQswArraERf28OcBFwZhdCVIuvJKOF+5mP79w6Ap2oKtGQ+8Kr0ajzdf6uc282inw1A8HpjlqKiyXyNoTf4Ov+YPQVOc7wiUhZJQsDaQGYveN/GTJOjhBfe2XgDI4pozKj52ZJunnzYx8AW13bLmFsXpckuVf+b3tDuUsitcRBxxZMDOWbl6JkZfdHPg1LDVKUX29XPVukN22wIqjVeAb7ZbPLycsmXxuiPMgc8C2BWM4dJcletD4C+0yAJbPO4hI91BqR/RvRp5bE1jlQu1PDST2SZI8GJ6jptGuFicWHVky543K//RHXfvELm9FOcEBP3DAlgXDaSg69fH+xMIPXoof9QMjeNLAaTQthSHseWIIm6dkBC6vOcC8VMBYISxLTzskdARdouZaVC7El9MDW/bCn3QzTtMO+KR8piO20kF5UVRwoOocYFcwNEPXWeo7uWOJGmR/i5Xm00TA9FvJDsDattDQ1fq+0h5XrdQnYAQH/MgBpi6Sw7VFdbsGB3w7BOG32n4AsnCAi5CcttknClaPA5YtGFoVDTK7bZKaPvtW8nYvpvfbpM/VYogH8zVU0Ge7Elnaoyy/f77t8qKg4ECVOGDZgsFX+ARojNigM41YKAtFLBQwbzyouV3/VR/CcJJfRyTBgcBwoLIFQ5PptmVfQIsiNlo1brmIQEsG69DN6U2f0Dba4COWQklfhRzusVNWlBEcqBYHKioYCnMJ4jptEYi4JyefXPJPtsrWaKGRHdGH0bRe1ubB1KR1Tz20ER1rWQEvOFAtDlTsIuGrSSZ9lw0CuZv05vof+oqTwzSCXwo/WmU9mBpM9FqNA4MyVU+2u5xZaSMsIVJSIgkO+J4DZS2YSyj6v71QlyMYirbVFSjk2Ixlm5dSFw2/kxKcnbhP1lTEhFNwxPodKTZDjf0/wCSb7k6uNu/5+nDmRPJOEJhmJlKW1lKgLOZyooDgQBU4UNKCMfYtoq1F2FcLp2gSHY95LrBY4qQ8bPBlOKVhNbbPN6x34PQV+y7ZeChEEe85UNyCgWNXok3RGJVLFmuLaPo/D+Vy+d3JR20qF+JiKyyaV/ECb/Czz4KcvuDZLhti7xLBw21wTRTxnANFFQxt5wq/Bs1CZUpYuPg4j+n/6Oo8On222s1UeQEwTLMroKC2XbQkdgT4fDv68pGWuL+AdEuXM5ZuoS6WSIIDvuZAcQUzvlc0K+HDWBW9g7VQITwtFESeI+VSiBNWwuMIe7mHItIV3qv2tdmN6wQdrP6YDuGLqbb0RP2VOFDUB4Mv/hkUDFcqnHc/Db/LLB5dI9RNc27ohXMnZaWEtDexzW/R/G36Y4Qvxp2nRGDlxIEpFozxoLMpF4RBkTQeysVsk8qpbcXRkNO4I7a1+M3q5ZI/BrXrjBR0Gs54xkICXHDAKw5MVjDXqBdCWTC/fNiXqIcHwbBeVgGPwgNXBRzdqOsIuk2x6XPVKyrAenb77HHtKcbKFOms5HR1O2OVAlxwwDoHJikYZdbipSjaZL24AamnBra8yFimFPg9pW64kN8CR3b88juTNNoUcQE/M8ozbw7+mLkQ5ikZMXpsFBRFBAfc5sAkBdM4O6oyVpim6P+MZcqBLyh306V7EVhtJ5ruSj5R7RfV3JplLWs7s59m6MMgkuCA7zgwycmLbgNr3BKuywFQPwZ8qpyy0ir4Q56rJhXgwwnUH2GgYTdWWt/KAC9ABQc84cCEBUMT0vB2f5GlVtoUjQWeM6x29i3tduA8yhNvVpZ24QV/Vlm6ebUUUVlG0riRgRXXz7Mgg9wWscALWMEBrzgwoWAwIW0DzJkGloppx0UWeN6wJ5+MPoMv9zz4UqLAneKB3+TBKmVZojeyLklD5p6n9FuDv2SpFDRfAYe1e0P7LMQIWMGBPA5MKBjkqXn5Vk6x3qf627kSoejSaDh04cc3YTYzdRs/q8ZZHd/O6BjFCnHWlJXaWIsIeMEBtzlgKBhzvU6EqTJsRM8E7zIwLJkXsc3HrDPHte2oKs2xutYLOmL/QuuaLrpKvYwj3pKoTMXdWxKg+I2uanXpipMjcgUHJASzRBody8xnZMYwrIZ+xjKug9MeQu/+JLoeXaZ5qIybb4a6IBhp2nbpX3k4pE0zjtmSovyF2sJWREALDrjLAUPBXDAn2spUjcz88DOhdwoM5ad/8PfRr0ApxIFryCm+vPItwEkT9Pa4vZqZ2gCH8+G8uiueypnMNRWBBIDggIccMBRM42ymL18qCLsDfPym9j7oTKDrtBD83MaRp2FaaY7VzAfQbYpH1LhrI01Ynf46C91QSHNZ4AWs4IDbHDAUDMuDiSFRpq+q2w2wgh9KZhP2jo5ilg3fYfXxdU3JGUs3r5Qohg7nlNoXY3L2zmhPME0z4EyuQCc4MIUDhoLBl9Lyl09mNNun1FiljNRAXHt7k/w1WB9rQAJPJ/CCmcsSuyMdyZ9xb1o29AYLTsNXxFJAwAoOuMyBkLka17KZj4WNIy7T5Cp6+DZ6oWS6XKhkFYa0X+C5unlaSGLldZML7RIoBQdscyCEb/kCltLoZnAbnWGplycslMxziNnbjC5IN/DqHHF3YnXzkc+t3X8DD5wfvKmx0iYUDA/GCxzcOEBdJCYFI8uhd7nVXkVEFEku9fKWxzB3hpzAGkdSms6PRB/ngk/X0oy0hSM/zLKNCHIhVCARHCjOgRCGXa8ufqtEbgPXL36JSrzLprkzcAJHOa9rasVQ9hNcHL8yo8U4xhxuwztmi5rqjgNkwTCZ1X7fCsSuBE/m1jVJ0na7OCaVy0prL2lQr5uUZ+/it4zFmCxSRtwCXHCAiQOkYCIMJchkr+mk90e/8+FArAOWXQ+G5D9x0tjzmtv+u5PyRtmMjXVJjisVCAQH+HCAVcEM8anWx1g0bfT0wJa9mKS37uOBxDJQmrJL7fQ52P7F6yRLV3pdpahPcKAUB0jBiFSCAx8OxIcwpH0tbuslQCplRyoBVLwfZrZgnNdZkSgBIDhgjQNCwVTgE60Jwrqmv0SXKY4u0zsVwAtvM/m3CgvTNcfdGoqhF3mCA65yQCgYC+zNrWv6ZL/RZbJQYgLE8gTGiRLiRHCghjjAff1MDfHmXFOwnYvStPjrFy6N3Ycuk+UE0FHLwAJQcKAGOSAUTAWhGlP/z0oUOlNlUS6EFmuDWLtUU6jxy5YqUwgTGYIDFjhACoaGnq2a8i0WcNYECO37PP2qtm9j6v99aJBiq1Gsk+SKVxIpnl0yt/ZH+ko2XdzwGwdIwdADqVokzLHT0mI9VQXDLNxuWCsxEGFPsZjUnxqIaY4bEgINDN0ywJ51XKdAIDjAiQPMTl76snOq25dooFxieEkfBXGO24mFocOOG5mRWh3jEAgEB6rEAVqLdJSl7mnnsy0tYMFdTdjL79l/E8ItHIRyiXOhQ5b6Tx97ZdAxLvaJc5rjOgUCwQFOHGiQMtK75I20msYyhoJhUkpWcVcDjiwypSM27sTlR8AIZgKv4ISOzYJhn5jHiUyBRnBgKgcasK9AP77a5G+wlLLZzBwAapaAfQxE+1BjT+flM5Zh6FmyHtHPQpPSZ04k11qAqwyC4XEAWVYwcNV88vZ6OVUZsYAQHPCGAw340g6ha2C5NoSHnPvRvi2W4f0IiKHflbDadrtA2zAU9pp3dywZ5oFb+Zw6lwUPDNH3WeAFrOCA2xwwnLxQL+8wVNTCAOsr0ItvvP96CmuJIOe7OBM2kj6u3ScheJX+XZmLciH6spkMW6weRn8aZx4IdIIDUzjQQDn48h3D4Yopd4tnWDbZixevTi5tMYKGGl1BBpdTZWLhzOXob5lUH6xFVl7rkxCIC8GBKnPAUDCgQWegI8IA6wtQWC007NztAjFaak/iVhfw5lBGcidWjkEPyG6ljQImWBwwukhnj2tkwVhOeGHvtQxcJcDpc9UraE4LaD0CEngrlyE4cjsp1Ka5j7RbrVzAiHiYEV6ACw64ygHDgjlzPHkYuzuyVEQv7GMsBbyENQJfZ7B+KCtFONc7AifuCp5+llL0mW1go7+BbR+lUnWLfMEBXhwwLJjQaOjXjAgjsA5WM5ZxHfzSG+MtsFiextyeQ6gswqtCOMHfh/8m/u5T0b/0QrkYdGelrYz067UaL5mRDwLcRxwwLJgPtfg7F3cY25S2WqZtfMbrTsvwLgNCsdyDKnpcqEb/SEtEvXx5aY4OrK8OprbI/rUomdohgGuKA4YFY7RIZo6mH1GW3d9WTW4oEVXBvtD3wJraAyvjcc606Bh6/msMPc/zUrlQG8JfYA4Wnv7DnoQb83o4s1SgqzcOyPkNhhVwCtdKfl6F8+1wdK6vAGP5NuqHnrCcyKGZxo/VEVqpgjSsh3XGFrOVIF26TwqT0YIZghwWukSOQCs4YJsDuWHqHIKjOGF5YVlgc3XwOlrvzrHUiH2raWtZliLcYbNMMqCJTKRsRRIc8B0HznWRQNqZt7QBFgphblyHCWxsvoLyFaTK33bvbvotrYf2q662cjGc1GxWpHTqJQ5xZ9xjrcBcxxyYpGA+PTH4SxZeoH/VgK/nsxE1HmYpVwZWK3PPrVs6uiPNI09G13ntaylskLIsTlZZV2F+pWt5LLS3Eoy4LzhQDQ5MUjAfjmqvgwhWc1s5c3XbbVyIz0o7uOCxhmSIhp5pSxLamsRaEXehGpvbVtuoYZvLk/1skCSKCA6Mc2CSk5ey0OVR8eIlGRk0DCcjbVDmOKGLcAJIIo4RlUewDfRuKg/i7V0zuPhJ1MpiDepoR7O3lIraBAesc2CSBUPF8DXXcBiic4bUCsXAOjGsKHosW9hd9AafzL7TA1jx7DPl8lk13oRIui+giZaVC/xfo+jareHDFoFFcMAdDkwrilbOXhieHe0oeq905iIMZwxi7oheGqTynekXNf/m/LkqBYHimVKwym6FYkmcOa69wxMxD1x/tjb5KvAwjcjB9HwFH4MEj/oFDsEBtzgwxYIZryg0aKdCZVlspZ1y+WXe0+IjLnyZuxBSoS+/Hr+cK+1xFbSQc5ctycGPKsjWYAEdRA4UVTCpl+Pk6O1lbRCmyd1+cfvm5azlCuHxZe5FV2lbYT7j9VGEL+j6Q39iFiyXFxnLegJOo29Keyxmo7L0h/sTz9goJ4oIDnjKAVjapRP8KuTsVUtDlLgjSzfzsBgwo7UT1syzqMWyb8KkqA9T/G/VtXi6BIW+yDbnvHQxE5OVElDCceZyooDggMccKO6DyRHRIA82RtTboYUuyGVZPHaGm9sOfPJ/d75tEb4oWGogcTQ0lulrnBv9EwDCcGxeBlqKWl249z7uvfThQKz73Z8s+UFK10aLIvVJ5uX3JL913szIZlZy0M7X394k85kWwFq5gBccYOQA3snyyRwd2lgequjdo+iazCt6x2YmrTJW2mJdcNjOBwoFxzRCM7wGlTMs7Un0+91iyTUbUwEioJ0CYbFaZhJ1+1L7tuzM4RJHwQE/c6CigqHIcJffmfwXNKLJRkOGEUPla2eO+W/kxkZbuBT53Nr9N5wfiT5vk5+a3hNdIemar7t+XBglkNQEByoqGGqlGV2NgjjZSX2wZG62U7AWy8AiPIF2RWy0bQR8nGWjnCgiOFA1DhT1ZxRSY0Zx0wrzLV53okvQZRG2psFMp27EViNlyZfD7LbaIgrVDQfKO3nz2CDLmWOYfPcNZBWGeMiDKnEqS53hOWr6k1/v/FUJiJrOpm7Rpbf0voJGqjYbqqOruWb0Q/20zfKimOBAVThgqYuUo8wcNqYp7XZTL8z8NXYLB7Gc6dA9CNrt+LCoySmpUWrWxZawQRR/3dNsqYuU4xLNbcFSACehKbvIB3H5PfuX5nDW8pGGos3RIlvKBUPSxxCj5lqhXGr5KanttjEpGGJF+M3B7+Cg07nNFJneHP1FLftlaIYu+VumN6tPgUfMQ9E5vn40ELuv2jFqcrSIo+CAHQ5Y9sHkkNMEtvNG5efO/wv1QuRdl8tnPFKgqs4Z7fG5coN8KH1MSzGW9y04rS0K3xh7EgR22iUSlssn6Lt+d+QnS3baxSHKCQ74gQNMPphCgvGVJn+M7RcpDx/tkujL9UJ5NJY9pZALn+mI7QFQa1lAazd9F6/GGtkCSnBgMgeYu0j5xVP7Eon8awfnu4PcZaJgUVAutGaKh3JJYYHmYw54KYoKDviGA8xdpHzK4fAdkWT5xfBsVUX+Zfn3GM+NLhO6F10Yzg43ICZMOgCzVSmG7oz22IbzLo7sRnvnMrZ5Cji6Rgf+2J9oM0JWTLkrMgQHgscBR12kXHPpRVOWxuzO9M2hKTyuRbfJyxi9hfWXvTYnzXWVBWK7SZbLPKFc2JgmoP3NAS4KhppoKhnqJrRwbLKePqE9n34Lux2MSsPVDG5NCy1px0VYWF9FCIkF1GQe7TQduo9Tt0goFx4cFTj8xAFuCoYaZTo6aZUwl5evCKN68XJTLBS9yD1Xsox1WLQRPete0dap6YalJnwu1vklIAPEAa4KhtptKpmV+DJ/H8id+GVKsjErS4flrPR6al9sWMqG3pgWkkY+eFPTHa0yvka9UPmcOjebyVw9c1mCnLUR/MhSoSP3BP4cM+a5DGwJ9OgZd8YIhDXFAe4KJscdmg+CcJDJ3LVHRw3za46irt8iTsywUWdYGs6fCWtM3SelEYKVlcGojyxdCThSKPTzKqVohq6YROcVu0U91eKAawqGGoSXWcULTHNDbM9mrRZjXKxXx9oiX0z/N+QjSSSj+Wivgh9ZbMVkNQyYESO4F83izkpD+vdkUuQiucyBoMvIVQVDvFeW3z9fiW6Jo0vwVVTGvhLbZQF6iB5D+lLfu09Gf+B1AC7qtv6pIXPDzPbEdaChFQqCHPERh21PQaaHZXRXUy/FhqZNC732wUtxoXRsMrVWZeS6gsnxG8O69+C8J3ddZ0cNjtyo1202uoOy9Cjq7fSo7hTqiQuntXVu17qMPFMwxPJLb4y3XBSN3YSv6FpcRiivlhO+8K9/9HLs8dRbrzznyAHNwCSaLhCe3XZbuFm9BcUiDEV5gqbgiH/+1Mux508fe2XQq7bzbICbuOpJRp4qmJzQFDWuKB0x+rJ25fJq7JhGN+Rhr7cWcWHyHw+xDMHntCLf0c4DaVBx1JuMqqJgcg/HzGX33zBj6ZY7cd2BX1MuP4hHWCujYOYBWGcabYp2em/8mBftIGUdvqrtXizX6EZ95Kj1Y0qDqKH08eQjWCH+Sz8S6CZN9SyjqiqYnFDzLBryFfj1JcmRW+xIIytrYLFoxW66lYcIg92oNwb8QeJZIDbF4yWzepeRLxRMTpi0Klk6Kz2B61W5vAAcqxJaAab2veDN9gDwpxiJdRE6VchIgkHvw0TrfrKfZpZiRm07uh6LQOQVPiGTTH2aEzJ86qWYJo+F9nq9Pqpx7pI5s+7c9yD4cgv4EuRh/6EP92/uPv3SA6/5RLbcyBAyOsdKXyqYc+SNn5nBxttw1YVfNboDOpTKY3/Yk9hdzQWJpoV3CDyI4FcLKY0Z1QvNbXFqoT2SkNFkMQZCwUyQHFHDyl+oLXImc80MWDfI75q45/AEFgGFqXwfiuQoUOnYonUEx2GpIfSGH6b0I1D6TYhl3AOamhw21W/FySrsf68nuu4POuILBTgJGU0VXrAUTB79xhRqWUrmZVk5HQIQPdBDcI6eNQtomBw/ab2SFURewpg7ax5EnWGX69WBn375iRRaS36GS+eB3gFUyKj4U1FXCubDgVjH6YEte4uzwoe5WOEduSP5AChbix8v5UIKdhg/HavRoWjN1egVpvnTVPZPG6SWbDZz+QVzoq2Nc9TWbNbwj1Hwd16pL3CWjJBRWdnXlYI5tS+28aOXtzxcliM+ugkrbQO6bNs4kUSKZTdWcSd4dfmM6QXLY92gkUa0ePnGAmXJCBmVfzrrSsHgRejB5nHryrPEH3dNZyEF76IuitOUQpfwVszT6XeKqFh5YwnIkhhNL1CL3WfMC4zjV8hIJku4bHK0q0BZzD68CZOeHMO+T+GIGoGHiHwuTpULZs9qXVJ/YpZbyoWYSauoaTEnrKPms8c1srjIWrKbwggLcfDiG++/3i4CL8oJGVmTUX1ZMPTkZaWo1zNuWR94DutVRjD8u6Jaw7/ml30P2r2Ate158ENQWgvzrn11KmRkiKOijOrKgjFYQuELMNztq6c1jxjM+VmNIfPb87Isn6LcKIB7R3qiVZ1bQgsbP/j76NfQJY3T8L/lBkwGXEAvMW3DOzm7+ldCRhMyqCij+lMwCI2pzF28fIJFPjohXwYsrF6YlbZm6CJO8ffx1V+DPaX0ajfr4ze19+HvSiDusC1ladLfJY1vaFft5kzUL2Q0wYrcSVkZ1aOCkZT2RFeOO346Xrgk9r/t0AMr4X2U69b3Rn9kp7ybZVIIan56IEFdnT6b9XTSBDabZbkXEzIqytKSMqo/H0yOPyHExf1uZS94DtztoxnZ7ISdejDruCu1b8tOO2W9LIMuzwuor9NGnVWJCFhIp5BRIUcmXReVUV1aMAZbMkYoyUkcquqFLD1ts/5hZSz0nM2ynhaDJWN3DtICw3HsKbVFKhMyKsKUiayiMqpfBYM5G8YXFTMxJ1hUpRM4DWOoWmWpHt0icuhuwxD0Ql2LOxkWZqnWEeyHA/Gh1ECsE7SzOn7DGLZPVtM5L2RUUfRFZVTPCoY41omp+N+qyDoXASg0BRy7cdYq0Lf9BRy6m4KiXHLtI58MdiJ4JHfNcGy9eO7iNgZ4bqBCRpZZOUVG9a5giHMbL2mPO5mvYZn7xQAb/7zNjgMzdXrv5u8XwxeEvA9+Gv0x6BxipRXxgSiQuedJyMg6ywtlJBQMZste3B47SJHerbORH+T0OSq701OW1nyYfOA3/KjwFhMNYVMgcNTK1LXDMHxVFIyQkfXno1BG9TuKNJVnR1P7EremXo4PT73lTo65hucQsFufTCZL/ZhfQi9n9ZMZn0fKZq4cJyb0Ueqk9rr0G82Sj2XW3cmtjbPVjYwN6UbX8DHGMrbBhYycycjWhC7b0vJ3wRZlaYxe9mu9UjIXLYltQH3WlQuAMSTd4wc2mssBkqBlkuWnSDEdyxRutjIF4MzvBnfYUDBx1OmZghEyciYj0UUqeFuhZJ4uyHLzkr17NBoadJMgK7gpNgxGdUgZT1IuZtkIFismrXQ5zbARmpU682AUYzZtXobLp0JGkqQx8nhCRkLBTOVcK4avT9Kw5EVXqZdNvc0nx1wtrDBi6/Y6yHghfaRcLuiI/SPyI4X38q4VKOonrKwj+nh/Yh3KpfLKVjwdG8t4stJayGhcFE5kJBRM8ce5iYaOL/2r5KtuTfCSx+RiX//i1IznjnjpeyhGCIWF/ExH7Agcd4uK3S/IWyAtj60qyJtySaEewGumLo9yY2LBFEQuZAgZjTPViYyEgin/YLagK3Cy6a7kE1ZM/vKoJt+deWOCScFkJWlgMgZvr2bdtf/rFKcFtVq3umRjU7iKhKb2JrajfZYcw4QMcX2+WBEpBwAho3NMtCsjoWDO8bDUWTg8R11LDmCa+cvNosmyBdKGc/dAKQLdzifLpXFOdBfqYXJIAz5ihTbq9mHyneX2wYLyRMHAsmqxQn8ORsgoxwljwzVDRkLBnOOJlbNOWDSnoGiONN2d/D8zlm5eadfhiC8200sih0KvWSGQN0ye5cKqXIiUEav0nH1LG7YKCzgl8lCW6eVnwD0BKmQ0wQrjxI6MxDD1ZB5avWoJz1bp99dUAEOZdOjDF+8NDNEOoyuRoowKicmB7NXQeT7N5lYcdiyXHJrduZNKxz++lRzGkHUlsHP3p0kduDh6LoP/GSwlIaM8ttqRUf0omKyUQIQ1mpbP5PvI42+l007g74SScWNDXpaveyU6Ld03hqIx3AzgsKUCxYAYnLeyHHq3GIqSeVnpUViSj5a87/0NIaNCnmckpX4UDBp/cseSVbPu2U9fVbeUTCGLeV1rVhFdgnVVjbPbbqJ9i6DsSDmk8DuKtUu7rC4vyBuKVqzWWwiXfkvrGXkyqhfml7o+b9Rda6RUvRzzNau46kZGIel6WIHBTAj+o8JioC+stQQLBsG+4wRMzlocOuk8EEnGzNgNcl8lWtGuewGzvQScpe1AzG4R8VUpgcdK9rCdMBKgn+y/YCYho2JyG65LJ6/+s+gdUE5xcEQvxhXf5Vnw6UDhduDtfLAM7cZ2IIbTtgRQnkPXtnIBDc/bUS4mSa76VEo0m0+2kFExPrbWpYKhxXgUkBoT15rBlYqWQTHOeZlXaZsVY8asLO2BOXphBbrCNNxsWCkFgA6GovMxDcv9iTscxKgZyUcWpHMho+LSqk8Fk8cLvSeKFdSxrqwsHc7LDtTpqfMyNzAQbFgyhoPUjOaXZ7nYcujCaqFJct0OLBcG8oMJWq8yqisnb9FHU9fSKV3bacS17YhtNV6UooD+zZQz0hWM1JEi6UY0PwnD6jsxrL4L17aUC9ULy4m2S2Ga7k/l6inVq4zq3oLJPeRk1uMlWY+3pSuX55cjt9nDUxu0llY+I9u2ckFZcujumIq6vnKEjIrLWyiYAr7AN7Mz1Z+YaQSnlqWncDtVAOL9Zbr8sLocyh6zSRQplmo5dIuRHCmWGYg8IaOiYhIKpghbaG0MBad+e4N8F6yamaZVU01FEylC5kTWjE+n/RoXXtPn1KE7QX/eSSTvPGinZWmvUxlpQsFYeIzJqiFFk0pubj31cmwtitCMjV/gqMPBOWoBhTMQTFgqh4C6d9hzaAVgRsrB8bqHNjsZii5Kht01XUWRVSNTyKgY11PCyVuMLSXyUnsfeAO33vho35YJCGOIeHlsAZylrfBnKLB25uOmlW6HOoGk0knWWHdTFor2HMpImbXYFrevLKDzm25YLtJYRmpiJE0HPP3cTKpl5EJGU1mFtXlCwUxlC1OOMedDi2soRD/L6cpt2Y8tzFvJ4YvQ9P33tHhZC4W6dSjQCSXTgyPrC5urq+gRVssnNFpEDl0H81yK4jYy5QwpZuspK62pNPfEOrLikEJGBXxhlRHeCaFgCnjo1SVe1ndQV4vV+j5tMMJEkgIpm0wlI/G2ZNweilaWskWpc1u5EJOFjCY/anZkJHwwk3no5VVZa2QKIbIUmZJXIsNUMr0lbtvJ9mIoOsJAmM4A6wRUyGgy9yKTL8te6XRXKJiyPHLv5pnjTAGWJHw9VBZq4JReQ0PtKMP2khRU4oZDt6AKydialWWFu+zNymsho3OSsisjoWDO8dDTs7MIsMRYYQcjvESWDJTMWtZyefCuOHTz8BunihqL4SRcmF/yOovJfR4kIaNzTLYrI6FgzvHQ07Np05hDYIaxlcoTrESaSobZkvHCcqG20CpwHFaxtOvUQOx1Fni7sEJG45xzIiOhYOw+fQ7LGVtBsA6zZqW1pqnKVLsNS6b37Y3y/3BltCiPcnMV+LPIsm69APj80dCv8tC4dipkhA+AGg/D221bRkLBuPZ4WkCclTZagJoE0vjnbd+alGHxwqIlM0J+G/LfWETrCCx9VdtKIFAYkfRVGq5nxFceXMjIkYyEgin/eLl6F0Otz6GCEZZKps8ZDzTOUiYHS0oGu/RFca3n8vKOKcwGvplg8vJcPUXQ9LXMFWSl9cxlHBQQMnImI6FgHDx8nIoOMeJR0CeOM5aZACezHxZKM8zem/GjCXm0G8I6WgpBs4EnAF0+MYNeLWCsRscLrzOW4QHOyhchI5PrYqIdj8fPAY70ca0PX3JywlpP2DHx8nv2v/rujiX7rBeaDGnG+O2bnOvNVTiiRrCsYg9rbekT2vOsZXjACxlZ52KhjIQFY513rkCG3xykbhJzmt4cfYS5kE8KNK1N0rB0Eys56eODz7CW4QEvZGSdi4UyEgrGOu9cgTRGasaDXKUZK2hF2MsXjP2LGAtWDVxVG9C924Ah8Ntt0NBbjc3niE4hI8vSmiIjoWAs8849QAoHAT/IwzZq6PxMR+xIUJRMpCP5bfh9tsmSxNo1T3k1slVKBkJGpTgzkV9URkLBTPCnyid7E9tsBh5XLuiI/aOflQzNpVCWbl4NDm+0w2X4QLbbKce9jJBRSZaWkhHrl6RkBeKGMw6QGa5MyzyiLEv0smKCRbCILBmUm+fpHBELhBoTtTpiBzHZpdUCeDGQVPrNwceK3fA6T8ioJMdLykhYMCV5VoUbYyGag5KyWbMCJfOEzbLuFesw1hnZVS4UMyFBIUzdI5ARs5DRVIaVkZFQMFPZVbUcepHM0Jd2X6hOOH4PYQh7adUaYVZ8SfT+a8gJDYfufXZoQTkKRdoN38d2O+XdKiNkdI6zVmQkFMw5fvnizJjsJpfcX9oKja0Ywh5wMhnPSiXlYLAos/Pi5VsOAKbThkPXQI1yz8Ox64uuUWFbhYzGOWJFRkLBFD49PrjW/yH6I5DR54gUTMaDBXHq8ruSD9hZIMlat6LGFaV9801QLnswIvYCyiusOPLg9ZNPLf1+3rXvToWMJEsyghIKZsIXWkX/PGmZ+qyUwDTzuGV4HwBSdwdktHIhBcsC0N1YxwVXARLQeS+yeHVlRqRGaZ6+Xk4VVOPLSyGj8mIRCqY8f6p6t7E5evWse/ZrIIJ51msJwmkyX39qX0yDlaGfNxp6zc6ok7Is3prNZK7HiNciPEDtPOk7cyK5CksgyNkdiCRkVF5MQsGU50/V7xpbkp41LDU+lszUFumwBPuxNug13NIRmWU433pAl2cB8pugkNpwVPFzi440Argu1L8rD6OOQCUho9LiEgqmNG98c8d8gGmeCy9LxjdtyyNkO5y66/OuA3UqZFRcXMLJW5wvvsoli+LkjiUqiArc190CI0dgQcX1n0XvtwDrWxAho+KiEQqmOF98l3v2RPK3+MJfC8L6fEecfYKOGg7dDXJC+o32iX00/igpZDRVDkLBTOWJr3Pwpb+DvvggMuVrQssQZ07Q6h3pia7I9/eUKRKoW0JG58QlFMw5XgTjDF96DDcnHM74rWpbZVm6k1ZHp3VNryohblUuZDTB2YaJM3ESKA4Ym92PSs3StMxNM25M3CdnpS/6vQGwXHZ9sj/xAzNav9/JdUyfkBF7XA7HTBcI+HHAXAS4UxkLPSctj21E12kDsIf51cANE827WfN2deLpcmuEHUT1LiMxTG3nqfFpGcxZWY0XuddX5NEIETlxRTI4UG8yEj6YGnrw8SLvlPoT0xH8pwvNotGmkSo0j2YLD4GG+1Jaolkol8kSqDcZCQtmsvxr7gprtlai67QNDYu43Dga1erDvksP14uPhRc/a1lGwsnL6ynxKR5z47DnLr0x3jI2lrm+cU60dfpstRXkNsHpegW+MBeyko5y76PcYSiuo6deig1np2WHT7/0AC01EMkGB2pZRsKCsfFA1FIRYwO0jNQC300LFMYMtI2UT37Sce9tZOj0w8ug4SiShxwIsoyEBePhg+LHqszFhcN+pE3QNM6BIMtIOHnFUyw4IDjgGgeEgnGNtQKx4IDggFAw4hkQHBAccI0DQsG4xlqBWHBAcEAoGPEMCA4IDrjGAaFgXGOtQCw4IDggFIx4BgQHBAdc44BQMK6xViAWHBAcEApGPAOCA4IDrnFAKBjXWCsQCw4IDoilAnX+DAR5nUu9iO57L2VbpTGsFZOklmyR9WJYfKqHzPViGZxvW+Gf9WJCwdTJU1pqNTU2XBtfTV1u2WvePWyVirWPYjW1G4/NwlvjLaFQ5vovfCnaGpk/vuId9VyRJRnlyaCwbroFxWMkOmzqzxL4+5DTYRyPDu6KDctydvjAz7xf8W6SNU5ckP7rYW9qHvKo5VgjPPjjBxwb92ZXIqayJzF7oHT6BncmHj74bPyoF22vHwXj4ubvXgjKah0RNR5OX9W2Mjxb7USZ8W1frRbmA2dEtDvzltZ39veDL6b64zoftLWDRe2Khz8/r23lF+ZXV0Zv/6vW95//Pvii1uuejIKrYB7NKtJZ6RTDY6dhq4woA3zgQOst3mvgBASCN+31X9xkdK/i25a7Ezc5sAqGHi74A2DxWU4pKJiZlqEDBEhWSxB2FUCwKj1AbOVKKlktX14Z24iX2bc7P+BtWgMHMVcZTePKRY+RKe3xtajSasjH8Nio/OM/6dofPSbTteoUNa6E5yxe2dgR78WX4n+iIr867SPwOnbPaI/PbQjJR9B9et81pvgMMRSL8vlrFq9cdFu8FzzwtYywIV73ojvic8fG5CPvHOYjo6BbMIfwPBWGeCz5iGE3xIW0GVZJgADduKQ9vuDi9tgekKwEiOxxUmWpy4iuHzjC2Qi+4bb4gsV3BFdGW5djlwqHKegT7XSW9o9lM/NZ4H0Je416IXwtscAqFzAVpvhT6N4+HY6oEV/y2CFRn4WMMDIUC6xyofZDRhv7s09HWp3JKOgWzFawYqPl56EGRpLwYr6A9tIIUS2ko1KjtFBfL6dqoTG5NmAeSk3JqBEyikftySjQFkzq5RjbWH7WGLbNPQeBOjY2R6+GcqEuYa0oF+J/C0YCj2CuzgYJX/1ACaQIsc1fil4N5VJzMjoLGcGa2UCWWZFml80KtAWjLIu3KktjJFDrKSs1B200IzI+JH8EjWyy3tDAQW7HKN/6wFFtEhxPZhV6EXFZ0zLa2sEmo0BbMNKnks78QIaCZQGYyiXp4oOrY3SjB33uNfhF0WWZiRddzv2MPFm6GfVvx2+Ymd/WC6w11kVZh/cNpKlcXJURLIEezPZdA/9VFF2WmXjR5dyP8iBDT2RkrIti4HygLRhqJxyee/ASdDC0OZXqiTandM33/X7qFs26Z7+GtvH6KqaBqz+1L6aBZ/p5o6HX3tPiIwy8M0DJcsxmMtcryxKL8AC186TvzInkqnd3LHmRlaZqwVO3aNUP+cvo1V0xTQ5J+rRQ6DXMtGWW0Ze/EW+Vsa7pK3dARlm+Mnr735Krfv4dazKqBQXTiZeFnGqWE3w3Xal9W3ZaLlAlQNPn0sqlehcd3KDzXtBIFg6PNAIral5QHL+mz4WLjPAy9jzUIa/jwcRCHN/rz96LWancZAQrap4Vx2+wu0jgIuZT9OHANLcFX97OQgH46pqGosdHi5w+uClManswpSWawSdXHlziG7pTj6X6EzNTA7FOmOr9DnnZBMfvoca5S+Y4xONqcXJ4mqNFjmWENUEPHtydaHZLuRAjgPsx1DHzwM8hI1ixDpnTBH/ToT//YmUZBd6CIUaZMU3YnL0h6VpzS06HvOZfnOa5wCqLO8KclRJwZjvDYZMA0E9W5dMorthEQcV2Q3Hd6qC8q0Vpngu6HnEnlaB84qEV1ZER1kQ5l5Es7cZkvLIyCrwFQwImRYE1HoeZhJ2RXlA64hGmMh4AX4IZung5ux1UNQw/Rnu1lAvRTVbl6b2bF+G0D2b5qJ22oNwtZtfLTnFXy9AMXSgHRzL63RvJ9mopF2IOFEPfK8+OywiXtmSE5/QW6nqVY3ZNWDDUQJtffV3qT8zTtTg5P6ueaG2R0hE7AULsfvn78NWn0QTfJCgJtsmQhZTL0noorO2F2dW6prVFC1c5kxFGf3wlo017ICOZYcLqVOavR5uKyqgmLBhqLxy3w1PbXTEn8mFDpq0ilFcA0zI3oSq7yiX1h/6Ea34W2yzoTyRQ1o5sxqvMSjFSvLbr51zw00+dyQh+EN/J6OBzDmUkSTFSvMVYHejV1PkNSmfkt5Xrur6KvKb8/Ern02dH5yqj8jMYtrZnJlaqwOJ9Crlgror+M4tFJsDQnTjwx/5Em50h5wkkLp0QX8HfnakTyWONc6I0rH0BY1VhKSSlP/n1zkHGctzBKeSCsSpakphlhHYfgHJpszPkzL0hBQj1YW20oUHeeeJQ8lhkfpS6tswyymSl9L+9PFVGaHftJEw5p7AA1MVgTVXvWoD2OGiPsRIOeLJc5vlRuRS2xcFwti9i+XxvTzYOX58tGUG5zPOjcimUkYPh7BS6STML8dVMF4kaZi4B6CtspIXrzsvvSpZ1VlnAYRsE/qPVUC4UiIg19QVFuVDD9P7oj+EY3AiLi9VaVKCcnmZlDk94ikRnBotiRdsXFOVCDXtoW/THkM9GnDLLiFZfFzKnpiwYahyCUKlKeyxZ2FAL12mY4gu9Hro2otF1xM5YoK8QZBgO3WsLM4NwbSqLLlZaU/sS16Zejtv357BWaMJT1wiOXVsywlc9kDIiZQHlwCyjwX9IXPvPPz8no5qyYOh5SI1qB2AN9JjPBsshjC08Ds66a//XWQo5haUA3XZwYCj6Pjvl/FBmpCeaAB3M09/Ds9tuqwb9FKDbTr0Yig6sjHZvtCejSOtkGdWcgpE0bdSctXrUxkMRhiNyl5eL7sLj0f/ZSMUELazX2cdWyD/QaV3TYS2uYKUo3KzewlqGB7wZ/Z8JFU2ie2ZDcGUEx6+OtVDMMrryS5NlVHsKJvcYYJZh7pTxSJZM0kMls4CRvlQ1J9Ex0loS3OyKMi3xALKI4cgvidW1G8wyquYkOl5ceOhGYwIrs4w27sFgi5lqVsF88FM4FO3Pv1CgZA7Nujv5v3OMcuOIl4VM7yYW3Fhb9DgLvJ9h08e1Hmb6ZOlR5jIOCtCmaCjOJCOsLaoZGf1+mF1GCB4+IaOaVTAfv4mo6I2Ik2FfyUiNs9UH4ZBMujbRSzZ282N6/LGZ2U+ZCvgYOPzm4HMgL8VIYudn1TjTC8+IfxI4ujrbJmVYuMBmZjUjo/84Yk9GcIwbMqpZBUPPAS35xzAu9SOdjDyomL6fnLF080opooYtPF+WQGivaABGLAHngOC8rqWdEo0lGlmJFsulc020cvxTQ+YGK3BOYWivaOCIsOCREXLBzZ0SWWjhAYu2pDFszSyjsdFxGdW0giEG0wQ0bFeyziGzW2cuS+yOrEu+4BDPRPGxscz1ExfWTtJuhlywRgJ/KPiT+oF1Nwvmme2J61jg7cLSRvSMZdNuhlxgpIUb+LYOuR9KhklGi24bl1HNKxjiMu2FZMQqsTE0OklKiJyHLtMp/F5Q2jffNOke4wVGq1oZi9CLWJMJ8WoSaJh1K0a2vheWE4Z94UtCRjn+De22J6O6UDDEpNTAlhdPvRyL5xjm4KigbKfSnuiDojlhxD6xgWz6bJVJwRhhLm3UE4QiZrfPejc2i90IPEiR+WwyojCXHpBVlSqo24eZzNZlRDtGINWNgqHGzhwL7cSBhUlUrFyKYOr7C2TRQNEsKAdY5F5TkbzSWYihW/pmTdxhaV/EoxYzyYhi6HpEV1WqgX+JpX0RIrKuFIzhVOxPLEy/xT70Rswqkyg62EEomiNQNHswvL1VWbp59Yxl8etKBbVCn/aKMvim3KIA3VMyaygDFtoQS3MwxK+ywNuEZZIRBei2WU8gir36MzYZYT6M6tfN0l1juKFkNGkdlEEYlXRxrqgFiqYFw9sd+E2gVtQYnevmj84psWxipdtdLY01JR348tyD+hT8UlBsO8hpRwQ4TRS5fvE3Y/cCf4RwYUh38J+fS9Aoyggz7mzoDcYyKuA1xjIT4LS+aMHK2AJJllpC2YJ5LrJ0OfhEJj6TjGy1e4KiIJywyQjWS/0pmJwYsVBwDbbfeGzG0tiTeEG8GJWIoG76sSfWQNqq2nDDFYu/hS0ruvDST+q6oa2dmDw2hK9R76/eeeWntLSClSAK9nz7j/Y9CGXaibKkqI2EPrqKRYH3LlwZ63nqvugP3vuN9knuXqXjtBDj2iRZml8JZ7H7pBTVb8ZI4d4CJXIZwYBuxwkouChtx4S4iGBsjE1G4Ov8uuoiFfKeVuZ+1J9YhnyefpnCapxfZyQm0/uGzy++bfHtCdqoa5JyyRFC+XSf4HJ5LMfbH9n3CJTLKpSZUC555RVYBRvvfIRtFvQHL8WP5uGwckoWGVMi5dL2zdghKJa1OeXChKAccJZNRuVQ+fXewWfZZVTXCoYEmdLiFMzoWkzB76ZLnwpXZ6Fr8R0JakvFZBUuH5E5dZ4iB5ZPsrQ2N5uzPOCku/qkq/IXavnbU+9Cufzd1Fw+ORk2ByifSquDRWeoVq17BZNj1rtPRh+TGqVmXA/l8nxzDFu3sMytPVst0t7KvBXo+NR5K7475csrY2st0pED03MnvI/mArx23nhz+MIMMsqVCehRZ6FbKJg8bplLC25GlpaXXfVTll0OsxlJZSGYFR64I1bxow/eZhXWbTgMIVtVurZIsbLLoS3EAS8kFEyBAGm0Bl2mKEVPwwvyFG6nC0B8fQn/isJCIAs8jbyw4PYTrJxxV8H4qa1+okUomBLSIAfw2xvku9BtmgWnZX8JMN9lwxegsRDFAk8L34A7ZRU/HKm6VVi34bIh691Mt2mpJ/xCwVSQNnVPsMhwBVk0Z49r2wA+jJ+nVg3LpLKh5xLkQ3qnQrNyt98x4XPXFY9QGsQDKyn9yj8kHrMCmAfTlHfO9fTgswkNCC0rR9bKaVIZa5mAwjPJSCgYi1Imi+bkT6KbaMTJsGqsv2gWaygDFrLe7SErw+zalUE4fovgTKukImwOAJP0Hsb50dx1yaMs9eUHfy4JN/lGy+TLslek6C0ntDOFuSq7LRdgBISPR2EsElRwJhkJBWNDzIZVs1HehG1np3+0b/MiTHPvBppe/OihH8GPb8qyOUt/+r+iPwIB2/FLlSCE8rebcCVASmf/7l+Td+JuKSVDE/f6dv3t0u+XxjD1DnMQKZmdzz//WyOQdd/U2jnkMMqIQ42eo7Ax7WDEynCj5w0JSoXGsgNJ+hXo/VXq5S0TZNPL8pkVmIaelSieyAL8FPxaJwDYT1SWIjSDFttlrEeZ9dhI6wl0a9bmyuMr3uM0Zskz311CbZ6HZQgbgG8jzql9lGjF7cZty+Xnxi+t/3/awLhCmnHyoUHcb7QR8OVmGprH6NmzyGP5GldqjFoJIOj3R0fZ+IUBhNeEgnFB6jQShR99KelXNGEtFN57y8m2cjKVyTrLNTEAmt0l6jI5Ttls5nImJKGS1llFNBTMGl/ja821SGF8CNKFhbatkLVN/d7IqLBuv16zyggfm5RQMFWSJrTL+/j6G2thrJCAdVOt1dh0zAptPGAuYA3ANeZsZI98T/hp5WiHfN6HnCzLiJYi2PA7lSPBV/ewbzXbhw6jr8IHUyUR4uE9zFJ1NsMcvpEFfdVhG+cwBXdK6d+TS/mAuLUFyoVJRjJ7iE1utHqB6AtfYpPR1uXyUaFgvJBMsTrkkk7SYtCSsiyxqOiNGsikXRvQGbHcPtYX3y6L8BFgUmJYvW65DXZpqlY5dCkV1G25fbkPqFAwVZLYqZdiwyxVQ2DtLPBBglWWx7rRPsuxV7DvDpNlYZcXg7sYZZStXRlhXVk3+GhZRoA1ZCQUjN2nz2G57LQsk4JBdU1wDN/rsFrfFTe2b5ElpnalXmKLrGa30bLMLiOM2jG1xS5tXpaj7VvgsGVq16AZ/U4oGC8llVfX6ZceeA2XqbwsK6fbXdsEzkrtLsBctCT2BNAqLKinTfMmNOWBn7HLCN237WZ3gqVJvoZVV7PLKJMZl5FQMNUVbR9z9Q2ZNuYyPi1gxitWGclL2QhOxVjFOXAoDGYZjWVqR0ZQlhFwQz3HEUtnqVxwKqFgLPHLHaCP9ydoDsmUORjlaoOzd2LSXDm4INyb/oU2Cl3JmuKsBZzAD+5kl9Gib9SOjD7/X9hlBH/ahIxwLlI1OQC/ykHUv4CJBlm6GQswmb+sTHW4DBx5NKtIZ6WTqCbMUBVFH5zJAM8FFFH8DlKYUSZkkBGGaQMto3gyq5y1ISPMlp6QkbBgmJ4a/sAI1bmbGWtWevqS6P3XMJfzSYGLrlIvg3LZA3JYlAsF536+Gk343Rv2ZHTD6uDK6HP/Tb0s/Sd2GcFimSQjoWCq8cTm1Xn294Mv5l1aPVUuXr7lQavAfoO79FvJb4MmNosABbAz56SH16t2/ee/25PR4luDK6NvPpT8NrPVBoG8+sxkGQkF49VTWqIeY9tU+VyftQTYlGw4H7+K7tXWiBqsKHO0pzcm1d03pUGVM4ZPH3tlsDIYfwgsKaBFnHEbmL+6aU92KxylTJaajXq4FvnKNzffBOViS0a/f3WyjIQPhqto7CODskiitGoDwzDCRiw0V3bbKO5dkUva4wsubo+Rz4k1pSkGD0tsYtYKrMBj8aNtGR3cnVhI65+s1FNNmBtuiy9YfIc9GTVCRoWxiYUFU01p5tedldbkXzKct6amZVYywFcNFMplg83Kh6qtXIhuWF62ZfTpp8GQEZSLbRkVKhfimVAwxAUfJH2TrKPbs8sOKTOWJR4xZvliR0c75d0uQ5YL6HsB9XTaqevMieR2O+V4l0EIB+oq2ZJR2x2JR4xZvj6VEVkusNBsy+jtfysuo2m8hSDw2edAQ0g+0tis/jUrBvRzL0CZDmVO1x8RO5iCQfkmkc9lRnt8AAS12CSq7z8enp2wWZZ7sbEx+UiklV1GIMSQ0aJFXX88sMtfMiKfy1dudyajJ1YXl5GwYLg/gvYRGjNUZakLlsyoHSz4uj4IS+HpcESN2CnPswwNRUcezsZmtCdsffFNWnrhX7qVJ11OcRkzVCEj4LElI3wMHkQkwKehpCJOaXFanoaiMccnhomBtmWEZ7UX/qWSMkJ7RfIbB0hJgKYuB3SNoPO7Qv+uPOwAh+2i5iQ6mufCPBSdV+kQJtUtzLv21SkpCbw8XQ6IGkGg8BUUXc8BDttFaRIdzXOxhTKbNAAABEJJREFUMxSdqxQftCGERy0rI2HB5Ljlo+NIjxGc+qgDkpqkjHQIiupg093J1V4NZdPaoll3J7eaM3SdKJf0h/s3dztov+tFd290LiPEBT5Es4Rvezi52quhbFpbdNsPk1tphq4T5QIGpw/sqiwjYcG4/ijaq8C0Ao6gdJM9DJNKpRB39lY4kvsn5XK6oJAL5qpolQPKNKyvhdWyvljoN6fSc5MRuhu3Is6xKzKikAvmqmguMoL1tdCK9SUsGJYnykNYY1g2a2w9wqNWBbtTvkBdL3MFMw+cEoWOwKZwcSgXmtuickEqSf1BUC7UVhqWhVLgNcKl4Gv/AnW9zBXMXNgJXMr39mTjUC5cZWRFuVADhAXDRYwuIblGvTByR/IBYF+LH6/ZoGngon6/jv2chqRs6I1pIWmkUggE2oqFthahyPIUoJti6FKYSzxAFwIXr9T3Xk903R90bYQXQrfxfBYyuvNH/GUE/8YweKu/agRuCr0xNiaN5EIglGoTlEkTbS1CMqIA3WYMXQpzyVVGz/5tdJ2OLWBK0ZGfLxRMPjd8eh75YbYVPhX6AvFSMqVaquMG/fITddFa8jNcOu+DU/dml3C7jtbca6nmZUT7SrEwUygYFm5VEfbye/bfNL052gMS6IWvpUQWVX/QLJdiAvjG3+2/6cr/WrsyYrFccvwRCibHiQAcTcfvIZAaCQC5VkgMjEPXSmMIxnT81pSMrDp0i/FIOHmLccWneeT4PfnU0naQtxvORVsTvXzUtCEMRatBceha5Rs5fnfdBxnJ0m6UCbSMaJ7Lq89sVq06dIvxSFgwxbgSgDyMCN0LMnmNYHjd4l74W9Z4XanX9dHaI46jTJ6SD7p7MWTuWEbCgvFUbPwqwwv6GL6S64ExxQ+rJ5j6MP3flb2yPaGeoRLsC/4YwAMpo6HdfGQ0jYFfAtRnHEgNJIakUXkHJqalG2ZGWkGe26NMdjlAjtwDWBXdTQsXU7oW6K4DCxOwsHGooUHekclKaeVy/8sIq6K7aeGiPsxHRqKLxPK0+ByWwxomN1o4jGBRUT/Ec3Gjcaw4OaxhYq3SCvwwgkVFi8VzsVK4HIxQMOW4E8B7yrJ4a3h2223hZvUWkB+pUhNScBA+TzF0jTCXukYWjEgmB778jXhrpLXttiu/VF0Z4eV/nmLoUphL3SUZCQVTw489pvFH4Kd5FE3s9KiZ5A+KG/4hjyoMejUb92Qj2GvbUxnhpY+b/iHX2ScUjOssrn4FNM3/Tw2ZG2a2J66DwmnFwkeamRtxSBmtwzlMG9HTXtG0nWul5QYO66vp4jTNf2w0c8Oi20wZjc+ediwjvOC0Cf1h2iuatnOttNyAN5OFguHN0QDhg4WjglwVSmc+jopxjr8iaRgwI1iu8BocyilpDAsSvycfLQInsjhzABaOiqFeFV3OyjKSpBGEYHgNsCnIqx8bv1VdRv8fxBJ8i6WHn1kAAAAASUVORK5CYII=;" vertex="1" parent="1">
          <mxGeometry x="1392.22" y="730" width="280" height="280" as="geometry" />
        </mxCell>
        <mxCell id="yUXZ9sbIAIahtc0H1QDe-9" value="" style="rounded=0;whiteSpace=wrap;html=1;fillColor=none;strokeWidth=5;" vertex="1" parent="1">
          <mxGeometry x="1340" y="-580" width="1300" height="660" as="geometry" />
        </mxCell>
        <mxCell id="yUXZ9sbIAIahtc0H1QDe-8" value="" style="shape=image;verticalLabelPosition=bottom;labelBackgroundColor=default;verticalAlign=top;aspect=fixed;imageAspect=0;image=https://arunpotti.files.wordpress.com/2021/12/microsoft_azure.svg_.png;" vertex="1" parent="1">
          <mxGeometry x="1352.22" y="-570" width="140" height="140" as="geometry" />
        </mxCell>
        <mxCell id="yUXZ9sbIAIahtc0H1QDe-27" style="edgeStyle=orthogonalEdgeStyle;rounded=0;orthogonalLoop=1;jettySize=auto;html=1;entryX=0;entryY=0.5;entryDx=0;entryDy=0;" edge="1" parent="1" source="yUXZ9sbIAIahtc0H1QDe-10" target="yUXZ9sbIAIahtc0H1QDe-11">
          <mxGeometry relative="1" as="geometry" />
        </mxCell>
        <mxCell id="yUXZ9sbIAIahtc0H1QDe-28" style="edgeStyle=orthogonalEdgeStyle;rounded=0;orthogonalLoop=1;jettySize=auto;html=1;entryX=0;entryY=0.5;entryDx=0;entryDy=0;strokeWidth=5;" edge="1" parent="1" source="yUXZ9sbIAIahtc0H1QDe-10" target="yUXZ9sbIAIahtc0H1QDe-11">
          <mxGeometry relative="1" as="geometry" />
        </mxCell>
        <mxCell id="yUXZ9sbIAIahtc0H1QDe-10" value="" style="shape=image;verticalLabelPosition=bottom;labelBackgroundColor=default;verticalAlign=top;aspect=fixed;imageAspect=0;image=https://icons.veryicon.com/png/o/business/vscode-program-item-icon/azure-pipelines.png;" vertex="1" parent="1">
          <mxGeometry x="1440" y="-413" width="326" height="326" as="geometry" />
        </mxCell>
        <mxCell id="yUXZ9sbIAIahtc0H1QDe-11" value="" style="shape=image;verticalLabelPosition=bottom;labelBackgroundColor=default;verticalAlign=top;aspect=fixed;imageAspect=0;image=http://code.benco.io/icon-collection/azure-icons/App-Services.svg;" vertex="1" parent="1">
          <mxGeometry x="2270" y="-377.5" width="255" height="255" as="geometry" />
        </mxCell>
        <mxCell id="yUXZ9sbIAIahtc0H1QDe-16" value="" style="group" vertex="1" connectable="0" parent="1">
          <mxGeometry x="570" y="355" width="190" height="80" as="geometry" />
        </mxCell>
        <mxCell id="yUXZ9sbIAIahtc0H1QDe-3" value="" style="endArrow=classic;html=1;rounded=0;exitX=1;exitY=0.5;exitDx=0;exitDy=0;strokeWidth=5;" edge="1" parent="yUXZ9sbIAIahtc0H1QDe-16" source="yUXZ9sbIAIahtc0H1QDe-2">
          <mxGeometry width="50" height="50" relative="1" as="geometry">
            <mxPoint x="60" y="-75" as="sourcePoint" />
            <mxPoint x="190" y="40" as="targetPoint" />
          </mxGeometry>
        </mxCell>
        <mxCell id="yUXZ9sbIAIahtc0H1QDe-17" value="&lt;span style=&quot;font-size: 36px;&quot;&gt;3&lt;/span&gt;" style="ellipse;whiteSpace=wrap;html=1;aspect=fixed;strokeColor=#7DE9FF;fillColor=#7DE9FF;" vertex="1" parent="1">
          <mxGeometry x="1480" y="220" width="80" height="80" as="geometry" />
        </mxCell>
        <mxCell id="yUXZ9sbIAIahtc0H1QDe-19" value="" style="endArrow=classic;html=1;rounded=0;exitX=1;exitY=0.5;exitDx=0;exitDy=0;strokeWidth=5;entryX=0.5;entryY=1;entryDx=0;entryDy=0;edgeStyle=orthogonalEdgeStyle;" edge="1" parent="1" target="yUXZ9sbIAIahtc0H1QDe-10">
          <mxGeometry width="50" height="50" relative="1" as="geometry">
            <mxPoint x="1170" y="320" as="sourcePoint" />
            <mxPoint x="1450" y="320" as="targetPoint" />
          </mxGeometry>
        </mxCell>
        <mxCell id="yUXZ9sbIAIahtc0H1QDe-15" value="&lt;font style=&quot;font-size: 36px;&quot;&gt;1&lt;/font&gt;" style="ellipse;whiteSpace=wrap;html=1;aspect=fixed;strokeColor=#7DE9FF;fillColor=#7DE9FF;" vertex="1" parent="1">
          <mxGeometry x="570" y="300" width="80" height="80" as="geometry" />
        </mxCell>
        <mxCell id="yUXZ9sbIAIahtc0H1QDe-24" value="" style="endArrow=classic;html=1;rounded=0;exitX=0.716;exitY=0.545;exitDx=0;exitDy=0;exitPerimeter=0;entryX=0.75;entryY=0;entryDx=0;entryDy=0;edgeStyle=orthogonalEdgeStyle;strokeWidth=5;" edge="1" parent="1" source="yUXZ9sbIAIahtc0H1QDe-4" target="yUXZ9sbIAIahtc0H1QDe-7">
          <mxGeometry width="50" height="50" relative="1" as="geometry">
            <mxPoint x="1340" y="460" as="sourcePoint" />
            <mxPoint x="1390" y="410" as="targetPoint" />
            <Array as="points">
              <mxPoint x="1602" y="410" />
            </Array>
          </mxGeometry>
        </mxCell>
        <mxCell id="yUXZ9sbIAIahtc0H1QDe-25" value="&lt;span style=&quot;font-size: 36px;&quot;&gt;2&lt;/span&gt;" style="ellipse;whiteSpace=wrap;html=1;aspect=fixed;strokeColor=#7DE9FF;fillColor=#7DE9FF;" vertex="1" parent="1">
          <mxGeometry x="1492.22" y="435" width="80" height="80" as="geometry" />
        </mxCell>
        <mxCell id="yUXZ9sbIAIahtc0H1QDe-29" value="&lt;span style=&quot;font-size: 36px;&quot;&gt;4&lt;/span&gt;" style="ellipse;whiteSpace=wrap;html=1;aspect=fixed;strokeColor=#7DE9FF;fillColor=#7DE9FF;" vertex="1" parent="1">
          <mxGeometry x="1980" y="-340" width="80" height="80" as="geometry" />
        </mxCell>
        <mxCell id="yUXZ9sbIAIahtc0H1QDe-30" value="" style="shape=image;verticalLabelPosition=bottom;labelBackgroundColor=default;verticalAlign=top;aspect=fixed;imageAspect=0;image=https://testautomation.dev/wp-content/uploads/2020/09/icon-test.png;" vertex="1" parent="1">
          <mxGeometry x="1700" y="830" width="164.1" height="180" as="geometry" />
        </mxCell>
        <mxCell id="yUXZ9sbIAIahtc0H1QDe-31" value="&lt;font style=&quot;font-size: 48px;&quot;&gt;Azure Services&lt;/font&gt;" style="text;html=1;align=center;verticalAlign=middle;resizable=0;points=[];autosize=1;strokeColor=none;fillColor=none;strokeWidth=24;" vertex="1" parent="1">
          <mxGeometry x="1492.22" y="-530" width="350" height="70" as="geometry" />
        </mxCell>
        <mxCell id="yUXZ9sbIAIahtc0H1QDe-32" value="&lt;font style=&quot;font-size: 48px;&quot;&gt;Azure Pipeline&lt;/font&gt;" style="text;html=1;align=center;verticalAlign=middle;resizable=0;points=[];autosize=1;strokeColor=none;fillColor=none;strokeWidth=24;" vertex="1" parent="1">
          <mxGeometry x="1682.22" y="-200" width="330" height="70" as="geometry" />
        </mxCell>
        <mxCell id="yUXZ9sbIAIahtc0H1QDe-33" value="&lt;font style=&quot;font-size: 48px;&quot;&gt;Azure App Service&lt;/font&gt;" style="text;html=1;align=center;verticalAlign=middle;resizable=0;points=[];autosize=1;strokeColor=none;fillColor=none;strokeWidth=24;" vertex="1" parent="1">
          <mxGeometry x="2195" y="-122.5" width="420" height="70" as="geometry" />
        </mxCell>
        <mxCell id="yUXZ9sbIAIahtc0H1QDe-34" value="&lt;font style=&quot;font-size: 48px;&quot;&gt;GitHub Actions&lt;/font&gt;" style="text;html=1;align=center;verticalAlign=middle;resizable=0;points=[];autosize=1;strokeColor=none;fillColor=none;strokeWidth=24;" vertex="1" parent="1">
          <mxGeometry x="1590" y="750" width="340" height="70" as="geometry" />
        </mxCell>
      </root>
    </mxGraphModel>
  </diagram>
</mxfile>
